<svg xmlns="http://www.w3.org/2000/svg" viewBox="0 0 1920 1080" role="img" aria-label="Big Buck Bunny — backdrop art">
<title>Big Buck Bunny</title>
<defs><linearGradient id="sky" x1="0" y1="0" x2="0" y2="1"><stop offset="0" stop-color="#6fa7c9"/><stop offset=".55" stop-color="#A7D3F2"/><stop offset="1" stop-color="#e9f3dc"/></linearGradient></defs>
      <rect width="1920" height="1080" fill="url(#sky)"/>
      <circle cx="1411.2" cy="237.6" r="96" fill="#F2C14E" opacity=".95"/><path fill="#9cc26a" d="M0 1080 L0 712.8000000000001 Q320 628.4 640 695.9 Q960 634.8 1280 723.4 Q1600 555 1920 693.7 L1920 1080 Z"/><path fill="#7DA453" d="M0 1080 L0 842.4 Q240 722 480 835 Q720 719.5 960 830 Q1200 770.9 1440 831.3 Q1680 757.2 1920 837 L1920 1080 Z"/><path fill="#3F6E2A" d="M0 1080 L0 972 Q192 900.6 384 962.8 Q576 911.1 768 974.8 Q960 888.2 1152 979.8 Q1344 899.3 1536 969.3 Q1728 904.8 1920 978.5 L1920 1080 Z"/><g transform="translate(1267.2 756) scale(1.2)">
      <ellipse cx="-34" cy="-230" rx="20" ry="72" fill="#e8e3da" transform="rotate(-12 -34 -230)"/><ellipse cx="34" cy="-226" rx="20" ry="70" fill="#e8e3da" transform="rotate(14 34 -226)"/>
      <ellipse cx="-34" cy="-228" rx="9" ry="52" fill="#f0b8c0" transform="rotate(-12 -34 -228)"/><ellipse cx="34" cy="-224" rx="9" ry="50" fill="#f0b8c0" transform="rotate(14 34 -224)"/>
      <ellipse cx="0" cy="-60" rx="120" ry="110" fill="#e8e3da"/><circle cx="0" cy="-150" r="70" fill="#efeae1"/>
      <circle cx="-24" cy="-160" r="8" fill="#2a2420"/><circle cx="24" cy="-160" r="8" fill="#2a2420"/><ellipse cx="0" cy="-138" rx="10" ry="7" fill="#e79aa6"/></g><g transform="translate(114.8 340.8) rotate(-2.1) scale(1.2)"><ellipse cx="-9" cy="0" rx="10" ry="14" fill="#f2c14e"/><ellipse cx="9" cy="0" rx="10" ry="14" fill="#f2c14e"/><rect x="-1.5" y="-10" width="3" height="20" fill="#2a2420"/></g><g transform="translate(1228.4 626.8) rotate(-12.3) scale(1.2)"><ellipse cx="-9" cy="0" rx="10" ry="14" fill="#e9748a"/><ellipse cx="9" cy="0" rx="10" ry="14" fill="#e9748a"/><rect x="-1.5" y="-10" width="3" height="20" fill="#2a2420"/></g><g transform="translate(467.3 458) rotate(-8.5) scale(1.2)"><ellipse cx="-9" cy="0" rx="10" ry="14" fill="#ffffff"/><ellipse cx="9" cy="0" rx="10" ry="14" fill="#ffffff"/><rect x="-1.5" y="-10" width="3" height="20" fill="#2a2420"/></g><g transform="translate(1698.5 643.2) rotate(-1.1) scale(1.2)"><ellipse cx="-9" cy="0" rx="10" ry="14" fill="#9ad0f5"/><ellipse cx="9" cy="0" rx="10" ry="14" fill="#9ad0f5"/><rect x="-1.5" y="-10" width="3" height="20" fill="#2a2420"/></g><g transform="translate(648.7 562.6) rotate(12.6) scale(1.2)"><ellipse cx="-9" cy="0" rx="10" ry="14" fill="#f2c14e"/><ellipse cx="9" cy="0" rx="10" ry="14" fill="#f2c14e"/><rect x="-1.5" y="-10" width="3" height="20" fill="#2a2420"/></g><g transform="translate(1343.9 577.8) rotate(-19.9) scale(1.2)"><ellipse cx="-9" cy="0" rx="10" ry="14" fill="#e9748a"/><ellipse cx="9" cy="0" rx="10" ry="14" fill="#e9748a"/><rect x="-1.5" y="-10" width="3" height="20" fill="#2a2420"/></g><circle cx="961.3" cy="1025.4" r="3.7" fill="#ffffff" opacity=".85"/><circle cx="1842.3" cy="1064" r="4" fill="#f2c14e" opacity=".85"/><circle cx="409.5" cy="1021.6" r="5.8" fill="#e98aa6" opacity=".85"/><circle cx="616" cy="1059" r="3.5" fill="#ffffff" opacity=".85"/><circle cx="390.1" cy="867.3" r="3.4" fill="#f2c14e" opacity=".85"/><circle cx="1428.1" cy="989.8" r="5.2" fill="#e98aa6" opacity=".85"/><circle cx="1347.2" cy="930.3" r="2.4" fill="#ffffff" opacity=".85"/><circle cx="1681.1" cy="939.7" r="2.3" fill="#f2c14e" opacity=".85"/><circle cx="958.5" cy="966.8" r="2.3" fill="#e98aa6" opacity=".85"/><circle cx="433.6" cy="939.7" r="5.5" fill="#ffffff" opacity=".85"/><circle cx="975" cy="942.2" r="5.1" fill="#f2c14e" opacity=".85"/><circle cx="1809.3" cy="892" r="5.8" fill="#e98aa6" opacity=".85"/><circle cx="399.1" cy="928.8" r="4.3" fill="#ffffff" opacity=".85"/><circle cx="1002.4" cy="1023.8" r="5.4" fill="#f2c14e" opacity=".85"/><circle cx="904.9" cy="1039.6" r="6" fill="#e98aa6" opacity=".85"/><circle cx="72.4" cy="1005.2" r="4.8" fill="#ffffff" opacity=".85"/><circle cx="783.3" cy="1054.1" r="2.8" fill="#f2c14e" opacity=".85"/><circle cx="1703.5" cy="990.4" r="2" fill="#e98aa6" opacity=".85"/><circle cx="914.7" cy="991.3" r="3.5" fill="#ffffff" opacity=".85"/><circle cx="1899.2" cy="996" r="2.7" fill="#f2c14e" opacity=".85"/><circle cx="549.5" cy="1060.8" r="5.1" fill="#e98aa6" opacity=".85"/><circle cx="52.7" cy="908.3" r="4.2" fill="#ffffff" opacity=".85"/><circle cx="1469.5" cy="937.4" r="5" fill="#f2c14e" opacity=".85"/><circle cx="1275.5" cy="971" r="4.5" fill="#e98aa6" opacity=".85"/><circle cx="685" cy="1026.7" r="5.3" fill="#ffffff" opacity=".85"/><circle cx="564.4" cy="919.9" r="5.3" fill="#f2c14e" opacity=".85"/><circle cx="1044.5" cy="1000.5" r="2.9" fill="#e98aa6" opacity=".85"/><circle cx="54.4" cy="987.1" r="3.2" fill="#ffffff" opacity=".85"/><circle cx="1438.7" cy="958.1" r="2.4" fill="#f2c14e" opacity=".85"/><circle cx="1282.4" cy="940.6" r="5.5" fill="#e98aa6" opacity=".85"/><circle cx="753.8" cy="875.1" r="2.9" fill="#ffffff" opacity=".85"/><circle cx="1509.9" cy="894" r="5.3" fill="#f2c14e" opacity=".85"/><circle cx="1491.3" cy="988.1" r="4" fill="#e98aa6" opacity=".85"/><circle cx="1700.9" cy="914.4" r="2.2" fill="#ffffff" opacity=".85"/><circle cx="1061.4" cy="979.2" r="4.5" fill="#f2c14e" opacity=".85"/><circle cx="1309" cy="926.5" r="3.3" fill="#e98aa6" opacity=".85"/><circle cx="1484.1" cy="944.8" r="5.3" fill="#ffffff" opacity=".85"/><circle cx="986.3" cy="867.3" r="4.7" fill="#f2c14e" opacity=".85"/><circle cx="1555.2" cy="986.2" r="4.8" fill="#e98aa6" opacity=".85"/><circle cx="1668.4" cy="918.6" r="3.9" fill="#ffffff" opacity=".85"/><circle cx="865.2" cy="1037.6" r="5.1" fill="#f2c14e" opacity=".85"/><circle cx="346.2" cy="887.1" r="2.2" fill="#e98aa6" opacity=".85"/><circle cx="1770.1" cy="1063.1" r="2.6" fill="#ffffff" opacity=".85"/><circle cx="122.4" cy="1026.4" r="4.6" fill="#f2c14e" opacity=".85"/><circle cx="1588.1" cy="1059.1" r="5.1" fill="#e98aa6" opacity=".85"/><circle cx="1694.4" cy="1055.5" r="2.4" fill="#ffffff" opacity=".85"/><circle cx="460.3" cy="953.9" r="4.4" fill="#f2c14e" opacity=".85"/><circle cx="456.7" cy="1033.2" r="3.1" fill="#e98aa6" opacity=".85"/><circle cx="1215.7" cy="930.8" r="4.3" fill="#ffffff" opacity=".85"/><circle cx="122" cy="968.2" r="4.9" fill="#f2c14e" opacity=".85"/><circle cx="1072.9" cy="1074.5" r="2.4" fill="#e98aa6" opacity=".85"/><circle cx="1429.1" cy="932.6" r="3" fill="#ffffff" opacity=".85"/><circle cx="1441.8" cy="892.1" r="2.1" fill="#f2c14e" opacity=".85"/><circle cx="650.3" cy="980.3" r="5.4" fill="#e98aa6" opacity=".85"/><circle cx="1637.8" cy="896.5" r="3" fill="#ffffff" opacity=".85"/><circle cx="902.6" cy="1075" r="4.3" fill="#f2c14e" opacity=".85"/><circle cx="34.1" cy="987.6" r="2.2" fill="#e98aa6" opacity=".85"/><circle cx="61.8" cy="933.6" r="4.1" fill="#ffffff" opacity=".85"/><circle cx="776.4" cy="866.1" r="5" fill="#f2c14e" opacity=".85"/><circle cx="1729.2" cy="923.5" r="5.4" fill="#e98aa6" opacity=".85"/><circle cx="130.7" cy="902" r="2.4" fill="#ffffff" opacity=".85"/><circle cx="379.1" cy="867.6" r="3.5" fill="#f2c14e" opacity=".85"/><circle cx="808.3" cy="958.9" r="5.9" fill="#e98aa6" opacity=".85"/><circle cx="234.5" cy="983.5" r="4.2" fill="#ffffff" opacity=".85"/><circle cx="276.7" cy="933.4" r="4.6" fill="#f2c14e" opacity=".85"/><circle cx="1614.6" cy="937.7" r="2.4" fill="#e98aa6" opacity=".85"/><circle cx="869.9" cy="899.1" r="2.2" fill="#ffffff" opacity=".85"/><circle cx="902.4" cy="1032.8" r="3.7" fill="#f2c14e" opacity=".85"/><circle cx="808.2" cy="936.3" r="5.6" fill="#e98aa6" opacity=".85"/><circle cx="989.8" cy="988.1" r="5.5" fill="#ffffff" opacity=".85"/>
</svg>
