<svg xmlns="http://www.w3.org/2000/svg" viewBox="0 0 600 900" role="img" aria-label="Elephants Dream — Lumina key art">
<title>Elephants Dream</title>
<defs><radialGradient id="glow" cx="0.5" cy=".45" r=".6"><stop offset="0" stop-color="#E8B26A" stop-opacity=".55"/><stop offset="1" stop-color="#2B1E16" stop-opacity="0"/></radialGradient></defs>
      <rect width="600" height="900" fill="#2B1E16"/><rect width="600" height="900" fill="url(#glow)"/><path d="M389 660L386.4 691.3L356.3 686.3L349.8 711.9L378.6 721.8L366 750.6L339.2 736.1L324.7 758.2L348.8 777L327.5 800.1L306.8 777.7L286 793.9L302.6 819.4L275 834.4L262.7 806.5L237.7 815.1L245.2 844.6L214.2 849.8L211.7 819.4L185.2 819.4L182.7 849.8L151.7 844.6L159.2 815.1L134.2 806.5L121.9 834.4L94.2 819.4L110.9 793.9L90.1 777.7L69.4 800.1L48.1 777L72.2 758.2L57.7 736.1L30.9 750.6L18.2 721.8L47.1 711.9L40.6 686.3L10.5 691.3L7.9 660L38.4 660L40.6 633.6L10.5 628.6L18.2 598.1L47.1 608L57.7 583.8L30.9 569.3L48.1 542.9L72.2 561.7L90.1 542.2L69.4 519.8L94.2 500.5L110.9 526L134.2 513.4L121.9 485.5L151.7 475.3L159.2 504.8L185.2 500.5L182.7 470.1L214.2 470.1L211.7 500.5L237.7 504.8L245.2 475.3L275 485.5L262.7 513.4L286 526L302.6 500.5L327.5 519.8L306.8 542.2L324.7 561.7L348.8 542.9L366 569.3L339.2 583.8L349.8 608L378.6 598.1L386.4 628.6L356.3 633.6L358.5 660Z" fill="#C9772E" opacity="0.8154984166845679"/><circle cx="198.4378270804882" cy="659.9526144750417" r="61" fill="#120c08" opacity="0.8154984166845679"/><path d="M417.5 532.6L416 549.4L401.6 546.7L397.7 560.4L411.3 565.7L403.8 580.9L391.3 573.1L382.8 584.5L393.6 594.4L381.1 605.8L372.3 594L360.2 601.5L366.7 614.7L350.9 620.8L346.9 606.7L333 609.3L334.3 623.9L317.4 623.9L318.8 609.3L304.8 606.7L300.8 620.8L285 614.7L291.5 601.5L279.5 594L270.6 605.8L258.1 594.4L269 584.5L260.4 573.1L247.9 580.9L240.4 565.7L254.1 560.4L250.2 546.7L235.8 549.4L234.2 532.6L248.9 532.6L250.2 518.5L235.8 515.8L240.4 499.5L254.1 504.8L260.4 492.1L247.9 484.3L258.1 470.8L269 480.7L279.5 471.2L270.6 459.4L285 450.5L291.5 463.7L304.8 458.5L300.8 444.4L317.4 441.3L318.8 455.9L333 455.9L334.3 441.3L350.9 444.4L346.9 458.5L360.2 463.7L366.7 450.5L381.1 459.4L372.3 471.2L382.8 480.7L393.6 470.8L403.8 484.3L391.3 492.1L397.7 504.8L411.3 499.5L416 515.8L401.6 518.5L402.9 532.6Z" fill="#5A3A22" opacity="0.7263495209859684"/><circle cx="325.86230171844363" cy="532.5988217443229" r="29.3" fill="#120c08" opacity="0.7263495209859684"/><path d="M478 298.6L475.6 323.3L455.7 319.3L449.7 339.3L468.4 347L456.7 368.9L439.9 357.6L426.6 373.7L441 388L421.8 403.8L410.5 386.9L392.2 396.8L399.9 415.5L376.2 422.7L372.2 402.8L351.5 404.9L351.5 425.1L326.8 422.7L330.8 402.8L310.8 396.8L303.1 415.5L281.2 403.8L292.5 386.9L276.4 373.7L262 388L246.3 368.9L263.1 357.6L253.3 339.3L234.6 347L227.4 323.3L247.3 319.3L245.2 298.6L225 298.6L227.4 273.9L247.3 277.9L253.3 257.9L234.6 250.2L246.3 228.3L263.1 239.5L276.4 223.4L262 209.1L281.2 193.4L292.5 210.2L310.8 200.4L303.1 181.7L326.8 174.5L330.8 194.4L351.5 192.3L351.5 172.1L376.2 174.5L372.2 194.4L392.2 200.4L399.9 181.7L421.8 193.4L410.5 210.2L426.6 223.4L441 209.1L456.7 228.3L439.9 239.5L449.7 257.9L468.4 250.2L475.6 273.9L455.7 277.9L457.8 298.6Z" fill="#C9772E" opacity="0.4784978287294507"/><circle cx="351.5042731259018" cy="298.58402704820037" r="40.5" fill="#120c08" opacity="0.4784978287294507"/><path d="M625.3 637.1L617.2 688.5L591.8 680.3L572 719.3L593.5 734.9L556.7 771.8L541 750.2L502 770.1L510.3 795.4L458.8 803.6L458.8 776.9L415.6 770.1L407.4 795.4L361 771.8L376.6 750.2L345.7 719.3L324.1 734.9L300.5 688.5L325.8 680.3L319 637.1L292.3 637.1L300.5 585.6L325.8 593.9L345.7 554.9L324.1 539.2L361 502.4L376.6 524L415.6 504.1L407.4 478.8L458.8 470.6L458.8 497.2L502 504.1L510.3 478.8L556.7 502.4L541 524L572 554.9L593.5 539.2L617.2 585.6L591.8 593.9L598.7 637.1Z" fill="#5A3A22" opacity="0.4018292316701263"/><circle cx="458.8221106957644" cy="637.0873329788446" r="53.3" fill="#120c08" opacity="0.4018292316701263"/><path d="M509.9 94.2L505.4 128L485.2 122.6L474.2 149.1L492.3 159.6L471.6 186.6L456.8 171.9L434 189.3L444.5 207.4L413 220.5L407.5 200.3L379.1 204L379.1 224.9L345.3 220.5L350.7 200.3L324.2 189.3L313.8 207.4L286.7 186.6L301.5 171.9L284 149.1L265.9 159.6L252.8 128L273 122.6L269.3 94.2L248.4 94.2L252.8 60.4L273 65.8L284 39.3L265.9 28.8L286.7 1.8L301.5 16.6L324.2 -0.9L313.8 -19L345.3 -32.1L350.7 -11.9L379.1 -15.6L379.1 -36.5L413 -32.1L407.5 -11.9L434 -0.9L444.5 -19L471.6 1.8L456.8 16.6L474.2 39.3L492.3 28.8L505.4 60.4L485.2 65.8L488.9 94.2Z" fill="#C9772E" opacity="0.6512712240451947"/><circle cx="379.1227809526026" cy="94.20710938051343" r="41.8" fill="#120c08" opacity="0.6512712240451947"/><path d="M410 254L408.4 269.9L395.6 267.4L391.6 280.3L403.7 285.3L396.2 299.4L385.3 292.2L376.7 302.6L386 311.8L373.6 322L366.3 311.1L354.4 317.5L359.5 329.6L344.1 334.2L341.5 321.4L328.1 322.7L328.1 335.8L312.2 334.2L314.7 321.4L301.8 317.5L296.8 329.6L282.7 322L290 311.1L279.5 302.6L270.3 311.8L260.1 299.4L271 292.2L264.6 280.3L252.5 285.3L247.9 269.9L260.7 267.4L259.4 254L246.3 254L247.9 238L260.7 240.6L264.6 227.7L252.5 222.7L260.1 208.5L271 215.8L279.5 205.4L270.3 196.1L282.7 185.9L290 196.8L301.8 190.5L296.8 178.4L312.2 173.7L314.7 186.6L328.1 185.2L328.1 172.1L344.1 173.7L341.5 186.6L354.4 190.5L359.5 178.4L373.6 185.9L366.3 196.8L376.7 205.4L386 196.1L396.2 208.5L385.3 215.8L391.6 227.7L403.7 222.7L408.4 238L395.6 240.6L396.9 254Z" fill="#5A3A22" opacity="0.6233659441582858"/><circle cx="328.13964888453484" cy="253.97346636280417" r="26.2" fill="#120c08" opacity="0.6233659441582858"/><path d="M570.5 159.6L565.2 196.3L545.2 190.5L532.2 218.8L549.8 230.1L525.5 258.1L511.8 242.4L485.6 259.2L494.3 278.2L458.7 288.6L455.7 268L424.6 268L421.6 288.6L386 278.2L394.7 259.2L368.5 242.4L354.8 258.1L330.6 230.1L348.1 218.8L335.2 190.5L315.2 196.3L309.9 159.6L330.7 159.6L335.2 128.8L315.2 122.9L330.6 89.2L348.1 100.5L368.5 76.9L354.8 61.2L386 41.1L394.7 60.1L424.6 51.3L421.6 30.7L458.7 30.7L455.7 51.3L485.6 60.1L494.3 41.1L525.5 61.2L511.8 76.9L532.2 100.5L549.8 89.2L565.2 122.9L545.2 128.8L549.6 159.6Z" fill="#C9772E" opacity="0.7261776376049965"/><circle cx="440.16617671586573" cy="159.64252961799505" r="41.7" fill="#120c08" opacity="0.7261776376049965"/><path d="M310.6 288.6L308.2 317.9L280 313.2L273.9 337.2L300.9 346.5L289.1 373.5L264 359.9L250.5 380.6L273 398.1L253 419.8L233.7 398.8L214.2 414L229.8 437.9L203.9 451.9L192.4 425.8L169 433.8L176 461.5L146.9 466.4L144.6 437.9L119.8 437.9L117.5 466.4L88.4 461.5L95.4 433.8L72 425.8L60.6 451.9L34.7 437.9L50.3 414L30.7 398.8L11.4 419.8L-8.6 398.1L14 380.6L0.4 359.9L-24.7 373.5L-36.5 346.5L-9.5 337.2L-15.6 313.2L-43.7 317.9L-46.2 288.6L-17.6 288.6L-15.6 263.9L-43.7 259.2L-36.5 230.7L-9.5 239.9L0.4 217.3L-24.7 203.7L-8.6 179L14 196.6L30.7 178.3L11.4 157.3L34.7 139.3L50.3 163.1L72 151.4L60.6 125.2L88.4 115.7L95.4 143.3L119.8 139.3L117.5 110.8L146.9 110.8L144.6 139.3L169 143.3L176 115.7L203.9 125.2L192.4 151.4L214.2 163.1L229.8 139.3L253 157.3L233.7 178.3L250.5 196.6L273 179L289.1 203.7L264 217.3L273.9 239.9L300.9 230.7L308.2 259.2L280 263.9L282.1 288.6Z" fill="#5A3A22" opacity="0.5770600897027179"/><circle cx="132.2155949100852" cy="288.5850990191102" r="57.1" fill="#120c08" opacity="0.5770600897027179"/><path d="M234.5 802.3L231.7 823.7L219 820.3L212 837L223.5 843.6L210.4 860.7L201 851.4L186.6 862.4L193.2 873.8L173.3 882.1L169.9 869.3L152 871.7L152 884.9L130.6 882.1L134 869.3L117.3 862.4L110.7 873.8L93.5 860.7L102.9 851.4L91.9 837L80.4 843.6L72.2 823.7L84.9 820.3L82.6 802.3L69.4 802.3L72.2 780.9L84.9 784.4L91.9 767.6L80.4 761L93.5 743.9L102.9 753.3L117.3 742.2L110.7 730.8L130.6 722.5L134 735.3L152 732.9L152 719.7L173.3 722.5L169.9 735.3L186.6 742.2L193.2 730.8L210.4 743.9L201 753.3L212 767.6L223.5 761L231.7 780.9L219 784.4L221.3 802.3Z" fill="#C9772E" opacity="0.7957248146645725"/><circle cx="151.95200708694756" cy="802.3161891661584" r="26.4" fill="#120c08" opacity="0.7957248146645725"/><path d="M-20 493.8 C180 453.7 360 445.7 620 587.9" stroke="#1a110b" stroke-width="8" fill="none" opacity=".8"/><path d="M-20 550.1 C180 472.3 360 535.7 620 573.8" stroke="#1a110b" stroke-width="3.6" fill="none" opacity=".8"/><path d="M-20 783 C180 785.6 360 927.7 620 846.7" stroke="#1a110b" stroke-width="4.9" fill="none" opacity=".8"/><path d="M-20 634.4 C180 632.8 360 602.2 620 588.9" stroke="#1a110b" stroke-width="5.4" fill="none" opacity=".8"/><path d="M-20 231 C180 92.8 360 254.9 620 308.9" stroke="#1a110b" stroke-width="6.4" fill="none" opacity=".8"/><path d="M-20 882.9 C180 931.1 360 1031.6 620 939.8" stroke="#1a110b" stroke-width="4.1" fill="none" opacity=".8"/><path d="M-20 471.3 C180 360.3 360 610.3 620 474.3" stroke="#1a110b" stroke-width="5.7" fill="none" opacity=".8"/><path d="M-20 229.9 C180 305.2 360 222.7 620 186.4" stroke="#1a110b" stroke-width="6.3" fill="none" opacity=".8"/><path d="M-20 477.9 C180 435.9 360 584.8 620 515.8" stroke="#1a110b" stroke-width="8.5" fill="none" opacity=".8"/><path d="M-20 605.6 C180 486.9 360 717.3 620 624" stroke="#1a110b" stroke-width="7" fill="none" opacity=".8"/><path d="M-20 842.7 C180 757.5 360 905.4 620 771.5" stroke="#1a110b" stroke-width="4.1" fill="none" opacity=".8"/><path d="M-20 256.2 C180 201.2 360 329.7 620 221" stroke="#1a110b" stroke-width="3.3" fill="none" opacity=".8"/><path d="M-20 109.5 C180 128.6 360 105.5 620 41" stroke="#1a110b" stroke-width="5.6" fill="none" opacity=".8"/><path d="M-20 565 C180 583.2 360 521.8 620 528.2" stroke="#1a110b" stroke-width="7.2" fill="none" opacity=".8"/><rect x="276" y="468" width="48" height="90" fill="#E8B26A" opacity=".95"/><path d="M295 558 l-3 -26 l6 0 z" fill="#1a110b"/>
<rect width="600" height="900" fill="url(#vig)"/>
<defs><linearGradient id="vig" x1="0" y1="0" x2="0" y2="1"><stop offset=".55" stop-color="#000" stop-opacity="0"/><stop offset="1" stop-color="#000" stop-opacity=".78"/></linearGradient></defs>
<rect x="18" y="18" width="564" height="864" fill="none" stroke="#C6A46A" stroke-opacity=".38" stroke-width="1.2"/>
<text x="300" y="64" text-anchor="middle" font-family="Inter,'Helvetica Neue',Arial,sans-serif" font-size="15" font-weight="600" letter-spacing="5" fill="#C6A46A">2006 · FILM</text>
<text x="300" y="724" text-anchor="middle" font-family="'Cormorant Garamond','Iowan Old Style','Palatino Linotype',Georgia,'Times New Roman',serif" font-size="50" font-weight="600" letter-spacing="5" fill="#F8F5F2">ELEPHANTS</text>
<text x="300" y="780" text-anchor="middle" font-family="'Cormorant Garamond','Iowan Old Style','Palatino Linotype',Georgia,'Times New Roman',serif" font-size="50" font-weight="600" letter-spacing="5" fill="#F8F5F2">DREAM</text>

<text x="300" y="852" text-anchor="middle" font-family="'Cormorant Garamond','Iowan Old Style','Palatino Linotype',Georgia,'Times New Roman',serif" font-style="italic" font-size="19" fill="#d9d2cf" fill-opacity=".9">The machine is not what it seems.</text>
</svg>
