<svg xmlns="http://www.w3.org/2000/svg" viewBox="0 0 256 256" role="img" aria-label="Midnight Kitsune">
  <defs>
    <radialGradient id="bg" cx="0.5" cy="0.45" r="0.8">
      <stop offset="0" stop-color="#2b0a14"/>
      <stop offset="0.6" stop-color="#11060a"/>
      <stop offset="1" stop-color="#080808"/>
    </radialGradient>
    <linearGradient id="mask" x1="0" y1="0" x2="0" y2="1">
      <stop offset="0" stop-color="#fbf8f4"/>
      <stop offset="1" stop-color="#e2dad3"/>
    </linearGradient>
  </defs>
  <rect width="256" height="256" fill="url(#bg)"/>
  <circle cx="128" cy="130" r="98" fill="#781b32" opacity="0.22"/>
  <!-- mask -->
  <path d="M128 214c-30-8-56-34-62-74L54 46l46 40c8-4 18-6 28-6s20 2 28 6l46-40-12 94c-6 40-32 66-62 74z" fill="url(#mask)" stroke="#c6a46a" stroke-opacity="0.5" stroke-width="2"/>
  <!-- inner ears -->
  <path d="M66 62l30 28c-8 6-14 14-18 24z" fill="#781b32"/>
  <path d="M190 62l-30 28c8 6 14 14 18 24z" fill="#781b32"/>
  <!-- forehead flame -->
  <path d="M128 92c8 10 10 20 4 30-2 4-6 6-8 10-2-4-6-6-8-10-6-10-4-20 4-30 2 6 6 8 8 10 2-2 6-4 8-10z" fill="#b52b49"/>
  <!-- eyes -->
  <path d="M84 140c12-8 26-8 36 2-12 6-24 6-36-2z" fill="#080808"/>
  <path d="M172 140c-12-8-26-8-36 2 12 6 24 6 36-2z" fill="#080808"/>
  <path d="M78 132c14-14 30-14 42-4" fill="none" stroke="#b52b49" stroke-width="4" stroke-linecap="round"/>
  <path d="M178 132c-14-14-30-14-42-4" fill="none" stroke="#b52b49" stroke-width="4" stroke-linecap="round"/>
  <!-- cheek marks -->
  <path d="M86 164l20 6M84 174l20 2M170 164l-20 6M172 174l-20 2" stroke="#b52b49" stroke-width="3.5" stroke-linecap="round"/>
  <!-- nose and mouth -->
  <path d="M120 186c4 4 12 4 16 0-2 6-6 10-8 10s-6-4-8-10z" fill="#080808"/>
  <path d="M128 196v8" stroke="#780b20" stroke-width="2" stroke-linecap="round"/>
  <rect x="8" y="8" width="240" height="240" rx="30" fill="none" stroke="#c6a46a" stroke-opacity="0.38" stroke-width="2"/>
</svg>
